<svg xmlns="http://www.w3.org/2000/svg" xmlns:xlink="http://www.w3.org/1999/xlink" width="500" zoomAndPan="magnify" viewBox="0 0 375 374.999991" height="500" preserveAspectRatio="xMidYMid meet" version="1.0"><defs><clipPath id="ffe4eeeaac"><path d="M 187.5 0 C 83.945312 0 0 83.945312 0 187.5 C 0 291.054688 83.945312 375 187.5 375 C 291.054688 375 375 291.054688 375 187.5 C 375 83.945312 291.054688 0 187.5 0 " clip-rule="nonzero"/></clipPath><clipPath id="1c00f6cf4b"><path d="M 85 22.710938 L 207 22.710938 L 207 162 L 85 162 Z M 85 22.710938 " clip-rule="nonzero"/></clipPath><clipPath id="57b173b78e"><path d="M 22.09375 252 L 94 252 L 94 304 L 22.09375 304 Z M 22.09375 252 " clip-rule="nonzero"/></clipPath><clipPath id="74f73dfbea"><path d="M 146 317 L 182 317 L 182 351.960938 L 146 351.960938 Z M 146 317 " clip-rule="nonzero"/></clipPath></defs><g clip-path="url(#ffe4eeeaac)"><rect x="-37.5" width="450" fill="#ffffff" y="-37.499999" height="449.999989" fill-opacity="1"/></g><path fill="#000000" d="M 55.40625 263.21875 C 57.816406 266.457031 62.398438 267.132812 65.652344 264.730469 C 69.253906 262.0625 73.515625 260.648438 77.980469 260.648438 C 84.621094 260.648438 90.691406 263.699219 94.644531 269.011719 C 101.453125 278.183594 99.527344 291.179688 90.351562 297.984375 C 87.105469 300.394531 86.425781 304.976562 88.839844 308.222656 L 117.285156 346.507812 C 118.71875 348.445312 120.933594 349.464844 123.171875 349.464844 C 124.6875 349.464844 126.214844 348.996094 127.53125 348.023438 L 348.894531 183.824219 C 352.144531 181.417969 352.820312 176.832031 350.410156 173.589844 L 321.964844 135.300781 C 320.808594 133.742188 319.078125 132.707031 317.15625 132.421875 C 315.242188 132.148438 313.277344 132.628906 311.71875 133.785156 C 308.117188 136.457031 303.855469 137.867188 299.390625 137.867188 C 292.75 137.867188 286.679688 134.816406 282.726562 129.503906 C 279.429688 125.058594 278.058594 119.601562 278.871094 114.132812 C 279.679688 108.660156 282.570312 103.832031 287.019531 100.535156 C 288.578125 99.378906 289.609375 97.648438 289.898438 95.730469 C 290.179688 93.808594 289.6875 91.855469 288.53125 90.296875 L 260.082031 52.007812 C 257.667969 48.765625 253.085938 48.085938 249.839844 50.492188 L 28.46875 214.691406 C 26.910156 215.847656 25.875 217.574219 25.59375 219.496094 C 25.308594 221.414062 25.800781 223.367188 26.957031 224.929688 Z M 198.144531 107.0625 L 200.328125 110 C 201.40625 111.453125 203.0625 112.21875 204.742188 112.21875 C 205.878906 112.21875 207.027344 111.867188 208.007812 111.136719 C 210.449219 109.332031 210.957031 105.894531 209.144531 103.460938 L 206.960938 100.519531 L 252.6875 66.601562 L 272.855469 93.746094 C 268.339844 98.828125 265.394531 105.109375 264.378906 111.988281 C 262.996094 121.324219 265.335938 130.644531 270.96875 138.222656 C 277.609375 147.164062 288.234375 152.5 299.386719 152.5 C 304.542969 152.5 309.53125 151.402344 314.121094 149.292969 L 334.285156 176.433594 L 288.554688 210.355469 L 286.371094 207.414062 C 284.566406 204.980469 281.132812 204.476562 278.6875 206.277344 C 276.253906 208.085938 275.746094 211.523438 277.554688 213.957031 L 279.738281 216.894531 L 124.679688 331.910156 L 104.507812 304.761719 C 115.339844 292.515625 116.53125 273.921875 106.398438 260.289062 C 99.757812 251.347656 89.136719 246.015625 77.980469 246.015625 C 72.828125 246.015625 67.839844 247.109375 63.246094 249.222656 L 43.082031 222.078125 Z M 198.144531 107.0625 " fill-opacity="1" fill-rule="nonzero"/><path fill="#000000" d="M 262.109375 193.164062 C 263.183594 194.617188 264.84375 195.382812 266.519531 195.382812 C 267.660156 195.382812 268.804688 195.03125 269.792969 194.300781 C 272.230469 192.492188 272.738281 189.054688 270.925781 186.625 L 255.480469 165.832031 C 253.675781 163.398438 250.238281 162.894531 247.796875 164.695312 C 245.363281 166.503906 244.855469 169.941406 246.664062 172.375 Z M 262.109375 193.164062 " fill-opacity="1" fill-rule="nonzero"/><path fill="#000000" d="M 231.21875 151.582031 C 232.296875 153.035156 233.953125 153.800781 235.632812 153.800781 C 236.769531 153.800781 237.914062 153.449219 238.902344 152.71875 C 241.339844 150.910156 241.847656 147.472656 240.039062 145.042969 L 224.589844 124.25 C 222.785156 121.816406 219.351562 121.3125 216.90625 123.113281 C 214.472656 124.921875 213.964844 128.359375 215.773438 130.792969 Z M 231.21875 151.582031 " fill-opacity="1" fill-rule="nonzero"/><g clip-path="url(#1c00f6cf4b)"><path fill="#000000" d="M 89.089844 160.632812 C 90.167969 161.195312 91.328125 161.464844 92.46875 161.464844 C 95.109375 161.464844 97.664062 160.03125 98.96875 157.527344 L 128.8125 100.347656 L 131.265625 101.625 C 132.078125 102.050781 132.941406 102.25 133.800781 102.25 C 135.78125 102.25 137.695312 101.171875 138.675781 99.296875 C 140.074219 96.609375 139.03125 93.292969 136.34375 91.894531 L 133.894531 90.617188 L 160.226562 40.164062 L 190.222656 55.792969 C 188.367188 62.390625 188.476562 69.386719 190.617188 76.074219 C 191.847656 79.917969 195.96875 82.042969 199.824219 80.808594 C 203.675781 79.578125 205.796875 75.460938 204.570312 71.609375 C 202.867188 66.304688 203.347656 60.664062 205.925781 55.722656 C 207.796875 52.140625 206.40625 47.71875 202.820312 45.851562 L 160.503906 23.800781 C 158.78125 22.902344 156.765625 22.722656 154.921875 23.3125 C 153.066406 23.894531 151.523438 25.1875 150.625 26.90625 L 85.984375 150.761719 C 84.113281 154.34375 85.503906 158.765625 89.089844 160.632812 Z M 89.089844 160.632812 " fill-opacity="1" fill-rule="nonzero"/></g><g clip-path="url(#57b173b78e)"><path fill="#000000" d="M 26.25 281.035156 L 68.566406 303.085938 C 69.621094 303.636719 70.78125 303.914062 71.953125 303.914062 C 72.691406 303.914062 73.433594 303.800781 74.152344 303.574219 C 76.003906 302.992188 77.546875 301.699219 78.445312 299.976562 C 80.769531 295.523438 84.628906 292.070312 89.3125 290.257812 C 93.082031 288.796875 94.949219 284.554688 93.488281 280.789062 C 92.027344 277.015625 87.777344 275.148438 84.011719 276.613281 C 78.328125 278.816406 73.351562 282.4375 69.523438 287.078125 L 39.515625 271.441406 L 43.734375 263.363281 C 45.601562 259.777344 44.210938 255.359375 40.625 253.492188 C 37.035156 251.628906 32.613281 253.019531 30.746094 256.597656 L 23.144531 271.164062 C 22.246094 272.882812 22.066406 274.890625 22.648438 276.742188 C 23.230469 278.59375 24.527344 280.136719 26.25 281.035156 Z M 26.25 281.035156 " fill-opacity="1" fill-rule="nonzero"/></g><g clip-path="url(#74f73dfbea)"><path fill="#000000" d="M 167.59375 321.855469 L 160.894531 334.695312 L 157.394531 332.871094 C 153.800781 331.007812 149.382812 332.390625 147.515625 335.976562 C 145.644531 339.558594 147.035156 343.980469 150.621094 345.847656 L 160.617188 351.054688 C 161.671875 351.605469 162.832031 351.882812 164.003906 351.882812 C 164.742188 351.882812 165.484375 351.769531 166.199219 351.542969 C 168.054688 350.960938 169.597656 349.667969 170.496094 347.945312 L 180.582031 328.625 C 182.453125 325.039062 181.0625 320.621094 177.476562 318.753906 C 173.894531 316.882812 169.46875 318.273438 167.59375 321.855469 Z M 167.59375 321.855469 " fill-opacity="1" fill-rule="nonzero"/></g><path fill="#000000" d="M 152.976562 100.5625 C 150.285156 99.164062 146.972656 100.207031 145.570312 102.898438 C 144.171875 105.585938 145.214844 108.898438 147.90625 110.296875 L 151.996094 112.429688 C 152.808594 112.855469 153.679688 113.054688 154.535156 113.054688 C 156.515625 113.054688 158.429688 111.980469 159.410156 110.105469 C 160.8125 107.417969 159.773438 104.105469 157.082031 102.703125 Z M 152.976562 100.5625 " fill-opacity="1" fill-rule="nonzero"/></svg>